<svg width="24" height="24" viewBox="0 0 24 24" fill="none" xmlns="http://www.w3.org/2000/svg">
<path d="M5.23673 9.11719C4.7807 9.11719 4.41113 9.48243 4.41113 9.93312C4.41113 10.3838 4.7807 10.7507 5.23673 10.7507C5.69276 10.7507 6.06233 10.3855 6.06233 9.93312C6.06233 9.48075 5.69276 9.11719 5.23673 9.11719Z" fill="#666666"/>
<path d="M13.3993 9.03223C12.9077 9.03223 12.5093 9.42595 12.5093 9.91182C12.5093 10.3977 12.9077 10.7914 13.3993 10.7914C13.8909 10.7914 14.2893 10.3977 14.2893 9.91182C14.2893 9.42595 13.8909 9.03223 13.3993 9.03223Z" fill="#666666"/>
<path d="M20.7891 1H3.21085C1.43759 1 0 2.42076 0 4.17325V14.4838C0 16.2363 1.43759 17.6571 3.21085 17.6571H9.41894L11.5313 22.5744C11.5313 22.5744 11.677 23 12.028 23C12.3806 23 12.5247 22.5744 12.5247 22.5744L14.637 17.6571H20.7891C22.5624 17.6571 24 16.2363 24 14.4838V4.17325C24 2.42076 22.5624 1 20.7891 1ZM7.53888 10.1143C7.52871 11.9992 5.55711 12.0528 5.55711 12.0528C4.79424 12.0528 4.36364 11.5535 4.36364 11.5535V11.8936H2.92774V6.03968C2.92774 6.03968 2.92096 6.038 2.92774 6.03633V6.03968C3.01759 6.05308 4.36364 6.03633 4.36364 6.03633V8.27469C4.701 7.70505 5.67747 7.7151 5.67747 7.7151C7.80335 7.91113 7.53719 10.1143 7.53719 10.1143H7.53888ZM10.0665 7.89605V11.9037H8.66116V7.93626C8.66116 7.39677 7.98305 7.24598 7.98305 7.24598V5.847C10.2276 5.93748 10.0665 7.89605 10.0665 7.89605ZM13.3978 12.0561C12.0958 12.0561 11.0413 11.0961 11.0413 9.91326C11.0413 8.73041 12.0958 7.77039 13.3978 7.77039C14.6997 7.77039 15.7542 8.73041 15.7542 9.91326C15.7542 11.0961 14.6997 12.0561 13.3978 12.0561ZM21.0977 12.0561C21.0977 12.0561 21.118 14.0918 19.0244 14.0918H18.3869V12.7732H18.7718C18.7718 12.7732 19.6516 12.8536 19.6414 11.5133C19.6414 11.5133 19.4702 12.0561 18.2361 12.0561C18.2361 12.0561 16.4865 11.9321 16.4865 10.245V9.60498C16.4865 9.60498 16.5272 7.85584 18.448 7.71678C18.448 7.71678 19.2058 7.63636 19.672 8.25626V7.82736H21.0977V12.0578V12.0561Z" fill="#666666"/>
<path d="M18.8648 9.05225C18.385 9.05225 17.9951 9.43759 17.9951 9.91174C17.9951 10.3859 18.385 10.7712 18.8648 10.7712C19.3446 10.7712 19.7345 10.3859 19.7345 9.91174C19.7345 9.43759 19.3446 9.05225 18.8648 9.05225Z" fill="#666666"/>
</svg>
