<svg width="24" height="24" viewBox="0 0 24 24" fill="none" xmlns="http://www.w3.org/2000/svg">
<path fill-rule="evenodd" clip-rule="evenodd" d="M24 10.4664C24 15.6936 18.6271 19.9305 12.0011 19.9305C11.2397 19.9305 10.4942 19.8763 9.77358 19.7677L8.44391 20.6697L8.43887 20.6731C7.01652 21.638 5.30709 22.7976 5.15532 22.8991C4.89019 23.0732 4.48909 23.0822 4.65225 22.4311C4.75426 22.024 5.17431 20.4552 5.47381 19.3366L5.47384 19.3365C5.56022 19.0139 5.63658 18.7287 5.69238 18.5197C2.27514 16.8512 0 13.869 0 10.4664C0 5.23919 5.37286 1 12.0011 1C18.6294 1 24 5.23919 24 10.4664ZM3.62798 8.72298H4.86299C4.86299 8.72298 4.86979 12.1075 4.86299 12.8966C4.86299 13.4731 6.14785 13.4799 6.14559 12.9056L6.15012 8.7682C6.15012 8.7682 6.56481 8.77046 7.37833 8.77046C8.14653 8.77046 8.14653 7.5654 7.37833 7.5654C6.51269 7.5654 3.62118 7.54053 3.62118 7.54053C2.89603 7.54053 2.8983 8.72298 3.62118 8.72298H3.62798ZM10.2268 11.0904L9.54016 8.94256L8.79462 11.0904H10.2268ZM7.89391 10.2432L7.89394 10.2431L7.89395 10.2431C8.25723 9.25233 8.61572 8.27466 8.76969 7.93646H8.76742C8.88753 7.67194 9.17079 7.56567 9.46084 7.56567C9.81209 7.56567 10.1747 7.72168 10.2744 7.93646C10.4299 8.26598 11.0766 10.0102 11.5644 11.3258L11.5644 11.3259L11.5645 11.3261L11.5649 11.3273C11.7663 11.8705 11.9406 12.3406 12.0419 12.6075C12.2844 13.2473 11.1105 13.6905 10.8681 13.0506C10.569 12.2616 10.646 12.2254 10.646 12.2254H8.38672L8.13972 13.0868C7.87686 13.6905 6.74155 13.1976 7.00442 12.5939C7.18313 12.1816 7.54075 11.2063 7.89386 10.2433L7.89389 10.2432L7.89391 10.2432ZM12.477 8.13316C12.477 9.20483 12.4838 12.6595 12.4838 12.6595C12.4838 12.6595 12.3841 13.3468 12.9756 13.3468C13.2727 13.3468 13.7506 13.3451 14.2262 13.3434L14.2269 13.3434C14.6977 13.3417 15.1661 13.34 15.4547 13.34C16.0348 13.34 16.0325 12.1078 15.4524 12.1078C14.8723 12.1078 13.8117 12.101 13.8117 12.101C13.8117 12.101 13.8163 8.90639 13.814 8.12864C13.814 7.75333 13.4786 7.56567 13.1455 7.56567C12.8124 7.56567 12.4748 7.75559 12.477 8.1309V8.13316ZM16.1773 12.153C16.185 10.8047 16.199 8.31706 16.1888 7.96371H16.1866C16.1798 7.70371 16.5129 7.57031 16.8392 7.57031C17.1451 7.57031 17.442 7.68788 17.4488 7.9298C17.4646 8.56737 17.4488 9.72043 17.4488 9.72043C17.4488 9.72043 19.2888 7.88232 19.5494 7.62457C19.8191 7.35553 20.6553 8.19658 20.3856 8.46337C19.9233 8.92233 18.7495 10.1884 18.7495 10.1884L20.4785 12.4606C20.8071 12.8925 19.7715 13.677 19.4429 13.2429L17.8136 11.0272L17.442 11.3257V12.9987C17.442 13.4939 16.173 13.4961 16.173 12.9987C16.173 12.9206 16.1748 12.5992 16.1773 12.153Z" fill="#666666"/>
</svg>
