<svg width="24" height="24" viewBox="0 0 24 24" fill="none" xmlns="http://www.w3.org/2000/svg">
<path d="M23.7609 6.66815C23.7609 6.66815 23.5266 5.00167 22.8047 4.26993C21.8906 3.30686 20.8688 3.30214 20.4 3.24549C17.0438 3 12.0047 3 12.0047 3H11.9953C11.9953 3 6.95625 3 3.6 3.24549C3.13125 3.30214 2.10938 3.30686 1.19531 4.26993C0.473438 5.00167 0.24375 6.66815 0.24375 6.66815C0.24375 6.66815 0 8.62733 0 10.5818V12.4135C0 14.368 0.239062 16.3271 0.239062 16.3271C0.239062 16.3271 0.473437 17.9936 1.19062 18.7254C2.10469 19.6884 3.30469 19.6554 3.83906 19.7592C5.76094 19.9433 12 20 12 20C12 20 17.0438 19.9906 20.4 19.7498C20.8688 19.6931 21.8906 19.6884 22.8047 18.7254C23.5266 17.9936 23.7609 16.3271 23.7609 16.3271C23.7609 16.3271 24 14.3727 24 12.4135V10.5818C24 8.62733 23.7609 6.66815 23.7609 6.66815ZM9.52031 14.637V7.84365L16.0031 11.2522L9.52031 14.637Z" fill="#666666"/>
</svg>
